<svg id="Layer_1" data-name="Layer 1" xmlns="http://www.w3.org/2000/svg" viewBox="0 0 1980.57 831.48"><defs><style>.cls-1{fill:#f4a342;}.cls-2{fill:#919191;}.cls-3{fill:#fff;}.cls-4,.cls-6,.cls-7,.cls-8{fill:none;}.cls-4,.cls-5,.cls-6,.cls-7,.cls-8{stroke:#000;stroke-miterlimit:10;}.cls-4{stroke-width:2px;}.cls-7{stroke-width:6px;}.cls-8{stroke-width:4px;}.cls-9{fill:#ccc;}</style></defs><rect class="cls-1" x="0.49" width="1980.08" height="831.48"/><g id="carousel"><path class="cls-2" d="M500.79,655.6l-.5,76-.5-76S315.4,805.36,277.42,807.66H723.16C685.18,805.36,500.79,655.6,500.79,655.6Z" transform="translate(0.43 -135.14)"/><polygon class="cls-3" points="500.22 520.46 366.46 672.51 433.34 672.51 500.22 520.46"/><polygon class="cls-3" points="500.22 520.46 629.14 672.52 564.68 672.51 500.22 520.46"/><rect class="cls-2" x="292.17" y="821.05" width="411.43" height="10.44"/><rect class="cls-2" x="315.12" y="668.32" width="3.16" height="155.73"/><rect class="cls-2" x="685.8" y="672.52" width="3.16" height="155.73"/><rect class="cls-2" x="417.19" y="672.52" width="3.16" height="155.73"/><rect class="cls-2" x="576.22" y="672.52" width="3.16" height="155.73"/><rect class="cls-2" x="446.46" y="672.52" width="108.4" height="11.28"/><rect class="cls-2" x="458.33" y="683.8" width="83.87" height="9.15"/><rect class="cls-2" x="464.66" y="692.94" width="68.84" height="117.4"/><rect class="cls-2" x="458.33" y="810.34" width="83.87" height="7.12"/><rect class="cls-2" x="446.46" y="817.47" width="102.07" height="6.58"/></g><path class="cls-2" d="M990.72,778.07l-.22,33-.22-33s-80.1,65-96.59,66h193.62C1070.82,843.12,990.72,778.07,990.72,778.07Z" transform="translate(0.43 -135.14)"/><rect class="cls-2" x="830.68" y="744.84" width="77.1" height="86.64"/><path class="cls-2" d="M869,838l-.15,22.85L868.65,838s-55.43,45-66.84,45.71h134C924.38,883,869,838,869,838Z" transform="translate(0.43 -135.14)"/><rect class="cls-2" x="935.22" y="706.97" width="111.41" height="124.52"/><rect class="cls-2" x="50.29" y="745.19" width="77.1" height="86.3"/><path class="cls-2" d="M88.56,839.74l-.15,22.85-.15-22.85s-55.43,45-66.85,45.71h134C144,884.75,88.56,839.74,88.56,839.74Z" transform="translate(0.43 -135.14)"/><rect class="cls-2" x="1898.91" y="748.18" width="77.1" height="83.31"/><path class="cls-2" d="M1938.18,838.31l-.15,22.86-.15-22.86s-55.43,45-66.84,45.71h109c.37-4.35-.52-9.63,0-14C1960.43,856.54,1938.18,838.31,1938.18,838.31Z" transform="translate(0.43 -135.14)"/><polygon class="cls-2" points="500.22 520.46 500.22 513.25 500.22 492.9 533.49 506.68 500.22 520.46"/><polygon class="cls-2" points="87.81 704.44 87.81 700.62 87.81 689.83 105.45 697.14 87.81 704.44"/><polygon class="cls-2" points="869.23 702.98 869.23 699.15 869.23 688.37 886.86 695.67 869.23 702.98"/><polygon class="cls-2" points="990.93 643.66 990.93 639.83 990.93 629.05 1008.57 636.36 990.93 643.66"/><polygon class="cls-2" points="1938.46 704.41 1938.46 700.59 1938.46 689.8 1956.1 697.11 1938.46 704.41"/><g id="FerrisWheel"><ellipse class="cls-4" cx="1532.77" cy="565.36" rx="202.03" ry="191.98"/><circle cx="1532.77" cy="565.36" r="16.58"/><polygon points="1532.77 564.36 1360.09 829.86 1368.09 829.86 1538.76 566.19 1532.77 564.36"/><polygon points="1538.39 573.08 1700.49 829.86 1692.98 829.86 1532.77 574.86 1538.39 573.08"/><line x1="1668.89" y1="423.5" x2="1397.33" y2="707.81"/><line x1="1413.87" y1="410.15" x2="1653.63" y2="719.2"/><line x1="1347.1" y1="641.32" x2="1722.15" y2="490.96"/><line x1="1352.17" y1="479.24" x2="1712.72" y2="652.71"/><line x1="1477.38" y1="750.03" x2="1589.38" y2="381.03"/><line x1="1565.35" y1="754.84" x2="1497.68" y2="376.27"/><rect x="1351.04" y="817.86" width="37.98" height="13.63"/><rect x="1674.42" y="817.86" width="37.98" height="13.63"/><line class="cls-5" x1="1330.74" y1="565.36" x2="1734.79" y2="565.36"/><ellipse class="cls-6" cx="1533.62" cy="565" rx="79.34" ry="75.39"/><g id="FW_carriage"><path d="M1486.39,894.88a1.63,1.63,0,0,0-.24-.52l-6.46-9.39a2.45,2.45,0,0,0-3.87,0l-6.46,9.39a1.66,1.66,0,0,0-.25.52h-.06V906h17.41V894.88Z" transform="translate(0.43 -135.14)"/><path d="M1575.28,899.46a1.73,1.73,0,0,0-.24-.52l-6.46-9.39a2.48,2.48,0,0,0-3.88,0l-6.46,9.39a2,2,0,0,0-.24.52h-.06v11.08h17.4V899.46Z" transform="translate(0.43 -135.14)"/><path d="M1661.27,863a2,2,0,0,0-.24-.52l-6.47-9.39a2.47,2.47,0,0,0-3.87,0l-6.46,9.39a1.73,1.73,0,0,0-.24.52h-.07v11.08h17.41V863Z" transform="translate(0.43 -135.14)"/><path d="M1720.61,796.58a2,2,0,0,0-.24-.52l-6.47-9.39a2.47,2.47,0,0,0-3.87,0l-6.46,9.39a1.73,1.73,0,0,0-.24.52h-.07v11.08h17.41V796.58Z" transform="translate(0.43 -135.14)"/><path d="M1743,709.66a2,2,0,0,0-.24-.52l-6.47-9.39a2.47,2.47,0,0,0-3.87,0l-6.46,9.39a1.73,1.73,0,0,0-.24.52h-.07v11.08h17.41V709.66Z" transform="translate(0.43 -135.14)"/><path d="M1729.31,637.55a1.63,1.63,0,0,0-.24-.52l-6.46-9.39a2.48,2.48,0,0,0-3.88,0l-6.46,9.39a1.87,1.87,0,0,0-.24.52H1712v11.08h17.4V637.55Z" transform="translate(0.43 -135.14)"/><path d="M1677.88,569.5a1.58,1.58,0,0,0-.24-.51l-6.46-9.4a2.47,2.47,0,0,0-3.87,0l-6.47,9.4a1.82,1.82,0,0,0-.24.51h-.06v11.08H1678V569.5Z" transform="translate(0.43 -135.14)"/><path d="M1598.36,526.38a1.39,1.39,0,0,0-.24-.51l-6.46-9.4a2.47,2.47,0,0,0-3.87,0l-6.46,9.4a1.58,1.58,0,0,0-.24.51H1581v11.08h17.41V526.38Z" transform="translate(0.43 -135.14)"/><path d="M1505,521.64a1.63,1.63,0,0,0-.24-.52l-6.46-9.39a2.45,2.45,0,0,0-3.87,0l-6.47,9.39a1.87,1.87,0,0,0-.24.52h-.06v11.07h17.41V521.64Z" transform="translate(0.43 -135.14)"/><path d="M1423.51,556.05a1.82,1.82,0,0,0-.24-.51l-6.47-9.4a2.47,2.47,0,0,0-3.87,0l-6.46,9.4a1.58,1.58,0,0,0-.24.51h-.07v11.08h17.41V556.05Z" transform="translate(0.43 -135.14)"/><path d="M1361.4,624.63a2,2,0,0,0-.24-.52l-6.46-9.39a2.48,2.48,0,0,0-3.88,0l-6.46,9.39a1.73,1.73,0,0,0-.24.52h-.07v11.08h17.41V624.63Z" transform="translate(0.43 -135.14)"/><path d="M1339,710.35a1.63,1.63,0,0,0-.24-.52l-6.46-9.39a2.45,2.45,0,0,0-3.87,0l-6.47,9.39a1.87,1.87,0,0,0-.24.52h-.06v11.07H1339V710.35Z" transform="translate(0.43 -135.14)"/><path d="M1356.36,786.38a1.87,1.87,0,0,0-.24-.52l-6.46-9.39a2.48,2.48,0,0,0-3.88,0l-6.46,9.39a1.63,1.63,0,0,0-.24.52H1339v11.08h17.4V786.38Z" transform="translate(0.43 -135.14)"/><path d="M1404.91,852.08a1.44,1.44,0,0,0-.24-.52l-6.46-9.39a2.47,2.47,0,0,0-3.87,0l-6.46,9.39a1.44,1.44,0,0,0-.24.52h-.07v11.08H1405V852.08Z" transform="translate(0.43 -135.14)"/></g></g><g id="Rollercoster"><path class="cls-5" d="M0,796.7" transform="translate(0.43 -135.14)"/><path class="cls-7" d="M2162.16,910.54" transform="translate(0.43 -135.14)"/><path class="cls-7" d="M1980,657.81c-76.76,1.26-316.47,267.66-447.66,261.56-156.66-7.27-403.49-250-525.34-250-147.16,0-369,163.65-460.48,155.08C419.67,812.54,393.59,697.36,211,648.63c-85.48-22.83-160.59-22.78-211-19.1" transform="translate(0.43 -135.14)"/><line class="cls-8" x1="105.45" y1="494.97" x2="105.45" y2="831.48"/><line class="cls-8" x1="38.32" y1="492.9" x2="38.32" y2="831.48"/><line class="cls-8" x1="175.08" y1="506.26" x2="175.08" y2="831.48"/><line class="cls-8" x1="238.97" y1="521.69" x2="238.97" y2="831.48"/><line class="cls-8" x1="304.83" y1="549.63" x2="304.83" y2="831.48"/><line class="cls-8" x1="367.79" y1="589.92" x2="367.79" y2="831.48"/><line class="cls-8" x1="430.06" y1="640.76" x2="430.06" y2="831.48"/><line class="cls-8" x1="495.24" y1="677.7" x2="495.24" y2="831.48"/><line class="cls-8" x1="561.19" y1="691.93" x2="561.19" y2="831.48"/><line class="cls-8" x1="626.77" y1="672.52" x2="626.77" y2="831.48"/><line class="cls-8" x1="694.76" y1="643.66" x2="694.76" y2="831.48"/><line class="cls-8" x1="757.2" y1="614.55" x2="757.2" y2="831.48"/><line class="cls-8" x1="824.97" y1="583.9" x2="824.97" y2="831.48"/><line class="cls-8" x1="901.63" y1="554.4" x2="901.63" y2="831.48"/><line class="cls-8" x1="978.52" y1="536.11" x2="978.52" y2="831.48"/><line class="cls-8" x1="1067.07" y1="547.84" x2="1067.07" y2="831.48"/><line class="cls-8" x1="1147.21" y1="586.28" x2="1147.21" y2="831.48"/><line class="cls-8" x1="1221.23" y1="633.63" x2="1221.23" y2="831.48"/><line class="cls-8" x1="1292.56" y1="679" x2="1292.56" y2="831.48"/><line class="cls-8" x1="1364.28" y1="722.03" x2="1364.28" y2="831.48"/><line class="cls-8" x1="1429.24" y1="755.24" x2="1429.24" y2="831.48"/><line class="cls-8" x1="1492.41" y1="777.92" x2="1492.41" y2="831.48"/><line class="cls-8" x1="1569.3" y1="781.1" x2="1569.3" y2="831.48"/><line class="cls-8" x1="1640.92" y1="749.82" x2="1640.92" y2="831.48"/><line class="cls-8" x1="1711.39" y1="706.09" x2="1711.39" y2="831.48"/><line class="cls-8" x1="1776.4" y1="659.07" x2="1776.4" y2="831.48"/><line class="cls-8" x1="1851.53" y1="600.79" x2="1851.53" y2="831.48"/><line class="cls-8" x1="1925.82" y1="547.27" x2="1925.82" y2="831.48"/></g><g id="cloud1"><ellipse cx="1467.1" cy="315.66" rx="70.89" ry="34.44"/><ellipse cx="1638.6" cy="270.51" rx="161.75" ry="78.87"/><ellipse cx="1800.35" cy="297.89" rx="84.34" ry="52.21"/><ellipse cx="1649.74" cy="202.35" rx="63.85" ry="43.33"/><rect x="1476.86" y="270.51" width="335.03" height="79.58"/></g><g id="cloud2"><ellipse cx="177.85" cy="276.31" rx="81.69" ry="39.35"/><ellipse cx="375.5" cy="224.72" rx="186.4" ry="90.13"/><ellipse cx="561.91" cy="255.99" rx="97.2" ry="59.67"/><ellipse cx="388.34" cy="146.82" rx="73.59" ry="49.51"/><rect x="189.1" y="224.72" width="386.1" height="90.95"/></g><g id="c3"><ellipse class="cls-2" cx="1182.91" cy="197.18" rx="44.65" ry="21.51"/><ellipse class="cls-2" cx="1290.93" cy="168.99" rx="101.87" ry="49.26"/><ellipse class="cls-2" cx="1392.8" cy="186.08" rx="53.12" ry="32.61"/><ellipse class="cls-2" cx="1297.95" cy="126.41" rx="40.22" ry="27.06"/><rect class="cls-2" x="1189.06" y="168.99" width="211.01" height="49.7"/></g><g id="c4"><ellipse class="cls-9" cx="696.27" cy="157.19" rx="52.44" ry="27.39"/><ellipse class="cls-9" cx="823.13" cy="121.28" rx="119.65" ry="62.72"/><ellipse class="cls-9" cx="942.78" cy="143.05" rx="62.39" ry="41.52"/><ellipse class="cls-9" cx="831.37" cy="67.08" rx="47.23" ry="34.45"/><rect class="cls-9" x="703.49" y="121.28" width="247.82" height="63.29"/></g><path class="cls-4" d="M1979.58,648.26c-76.76,1.26-316.47,267.66-447.66,261.56-156.66-7.27-403.49-250-525.34-250-147.17,0-369,163.65-460.48,155.08C419.25,803,393.17,687.81,210.62,639.08,125.14,616.25,50,616.3-.35,620" transform="translate(0.43 -135.14)"/></svg>