<svg id="Layer_1" data-name="Layer 1" xmlns="http://www.w3.org/2000/svg" viewBox="0 0 615.08 135.23"><defs><style>.cls-1{fill:#ffed00;}</style></defs><path class="cls-1" d="M618.08,493,709,486.39l-5.1,42.76-41.45,1.64-1.81,12.83,34.54-2.14,2.3,34.54-34.7,2.14-1.64,42.1-41.94,1Z" transform="translate(-618.08 -486.39)"/><path class="cls-1" d="M777.58,522.73q.72,18.36,1,29.52t.42,17.16q.12,6,.12,7.92v1.92a72.93,72.93,0,0,1-1.08,14,36.86,36.86,0,0,1-4.38,12.18,30,30,0,0,1-8.64,9.36,34.18,34.18,0,0,1-13.62,5.46q-12.48,2.4-21.48.48a31.26,31.26,0,0,1-14.82-7.2,30.38,30.38,0,0,1-8.46-13.38,53,53,0,0,1-2.4-17.82v-1.2q0-1.2.12-5t.24-10.8q.12-7,.48-18.6t.84-28.32l34.32,6-3.12,56.4a14.89,14.89,0,0,0,.06,5.52,14,14,0,0,0,1.14,3.48,10.17,10.17,0,0,0,.72,1.2,4.63,4.63,0,0,0,2.76,1.56q1.56.24,3.48-2.88a10.32,10.32,0,0,0,.72-1.5,23.93,23.93,0,0,0,1.2-4.86,40,40,0,0,0,.36-8.52l-2.52-46.08Z" transform="translate(-618.08 -486.39)"/><path class="cls-1" d="M782.82,520.73l45.84,38,1.08-39.72,35.76,2.4L860,613l-46-22.92,1.68,28.32-34.44,2.16Z" transform="translate(-618.08 -486.39)"/><path class="cls-1" d="M867.94,523.69l36.12-5-3.12,67.56,29.4-6.12,1.44,33.72-63,6.36Z" transform="translate(-618.08 -486.39)"/><path class="cls-1" d="M984.74,512.77l60.6,92.16-37.68,14.28-10.08-16.8-25.2.84-4.92,18-36.12-11.76Zm-6.12,71.4,14.28-2.52-6-16.32Z" transform="translate(-618.08 -486.39)"/><path class="cls-1" d="M1045.46,519.73l45.84,38,1.08-39.72,35.76,2.4L1122.62,612l-46-22.92,1.68,28.32-34.44,2.16Z" transform="translate(-618.08 -486.39)"/><path class="cls-1" d="M1127.14,500.27q27-5.24,52.9-8.37,12.56-1.93,22.27,1a40.09,40.09,0,0,1,16.44,9.34,42.74,42.74,0,0,1,10.31,15.7,61.93,61.93,0,0,1,4,19.87,78,78,0,0,1-2.32,21.9,80.61,80.61,0,0,1-9,21.82A87.84,87.84,0,0,1,1206,601.07a85.9,85.9,0,0,1-22.79,15.17,59.41,59.41,0,0,1-11.43,2.32,141.13,141.13,0,0,1-16.52.52,240.88,240.88,0,0,1-25.7-2.09Zm38.56,82.79a36.43,36.43,0,0,0,13.82-5.9,31.69,31.69,0,0,0,8-8.22,30.7,30.7,0,0,0,3.82-8.44,27.54,27.54,0,0,0,1.12-6.58v-2.69q0-.3-.45-2.91a30.1,30.1,0,0,0-1.94-6.2,15.6,15.6,0,0,0-4.19-5.91c-1.79-1.54-4.23-2.17-7.32-1.87s-6.88,2.25-11.36,5.83Z" transform="translate(-618.08 -486.39)"/></svg>